<?xml version="1.0" encoding="UTF-8"?>
<svg xmlns="http://www.w3.org/2000/svg" id="a" data-name="Laag 1" viewBox="0 0 4533.05 652.99">
  <g>
    <path d="M1241.2,142.99h-323.44V507.4h-80.71V102.95c0-5.59,1.03-10.86,3.1-15.83,2.07-4.97,4.91-9.31,8.54-13.04,3.62-3.72,7.92-6.62,12.88-8.69,4.97-2.07,10.35-3.1,16.14-3.1h363.49v80.71Zm-36.01,182.52h-255.15v-81.33h255.15v81.33Z" style="fill: #662d91;"></path>
    <path d="M1610.15,394.11c0,13.87-1.76,26.34-5.28,37.4-3.52,11.07-8.18,20.8-13.97,29.18-5.8,8.38-12.52,15.52-20.18,21.42-7.66,5.9-15.68,10.71-24.06,14.43-8.38,3.72-16.87,6.47-25.45,8.23-8.59,1.76-16.71,2.64-24.37,2.64h-145.58c-11.17,0-23.39-1.96-36.63-5.9-13.25-3.93-25.51-10.4-36.78-19.4-11.28-9-20.7-20.69-28.25-35.08-7.56-14.38-11.33-32.02-11.33-52.92v-109.26c0-20.69,3.77-38.23,11.33-52.61,7.55-14.38,16.97-26.07,28.25-35.08,11.28-9,23.54-15.47,36.78-19.4,13.24-3.93,25.45-5.9,36.63-5.9h145.58c20.69,0,38.28,3.72,52.77,11.17,14.48,7.45,26.18,16.82,35.08,28.09,8.9,11.28,15.37,23.54,19.4,36.78,4.04,13.25,6.05,25.56,6.05,36.94v109.26Zm-80.71-108.64c0-11.17-2.79-19.45-8.38-24.83-5.59-5.38-13.66-8.07-24.21-8.07h-144.96c-10.76,0-18.93,2.74-24.52,8.23-5.59,5.49-8.38,13.5-8.38,24.06v109.26c0,10.55,2.79,18.62,8.38,24.21,5.59,5.59,13.76,8.38,24.52,8.38h144.96c10.97,0,19.14-2.79,24.52-8.38,5.38-5.59,8.07-13.66,8.07-24.21v-108.64Z" style="fill: #662d91;"></path>
    <path d="M1938.03,252.56h-181.59c-10.97,0-19.25,2.74-24.83,8.23-5.59,5.49-8.38,13.5-8.38,24.06v222.56h-80.71v-222.56c0-13.86,1.76-26.28,5.28-37.25,3.52-10.97,8.23-20.64,14.12-29.02,5.9-8.38,12.67-15.52,20.33-21.42,7.65-5.9,15.68-10.71,24.06-14.43s16.86-6.47,25.45-8.23c8.58-1.76,16.61-2.64,24.06-2.64h182.21v80.71Z" style="fill: #662d91;"></path>
    <path d="M2264.88,507.4h-80.71v-222.56c0-10.55-2.79-18.57-8.38-24.06-5.59-5.48-13.87-8.23-24.83-8.23h-104.92v254.84h-80.71V211.9c0-5.59,1.03-10.81,3.1-15.68,2.07-4.86,4.97-9.1,8.69-12.73,3.72-3.62,8.07-6.47,13.04-8.54,4.97-2.07,10.24-3.1,15.83-3.1h145.58c11.17,0,23.17,1.97,36.01,5.9,12.83,3.93,25.04,10.24,36.63,18.93v-24.83h109.26c7.65,0,15.72,.88,24.21,2.64,8.48,1.76,16.92,4.5,25.3,8.23,8.38,3.72,16.4,8.54,24.06,14.43,7.65,5.9,14.38,13.04,20.18,21.42,5.79,8.38,10.45,18.06,13.97,29.02,3.52,10.97,5.28,23.39,5.28,37.25v222.56h-80.71v-222.56c0-10.55-2.64-18.57-7.92-24.06-5.28-5.48-13.4-8.23-24.37-8.23h-72.64c2.69,9.93,4.04,20.7,4.04,32.28v222.56Z" style="fill: #662d91;"></path>
    <path d="M2847.3,282.98c0,11.17-1.97,23.23-5.9,36.16-3.93,12.94-10.3,24.94-19.09,36.01-8.8,11.07-20.28,20.33-34.46,27.78-14.18,7.45-31.4,11.17-51.68,11.17h-145.58v-76.67h145.58c10.97,0,19.45-3.36,25.45-10.09,6-6.72,9-15.05,9-24.99,0-10.55-3.37-18.83-10.09-24.83-6.73-6-14.85-9-24.37-9h-145.58c-10.97,0-19.45,3.37-25.45,10.09-6,6.73-9,15.05-9,24.99v112.68c0,10.76,3.36,19.14,10.09,25.14,6.72,6,15.05,9,24.99,9h144.96v76.98h-145.58c-11.17,0-23.23-1.96-36.16-5.9-12.94-3.93-24.94-10.29-36.01-19.09-11.07-8.79-20.33-20.28-27.78-34.46-7.45-14.17-11.17-31.4-11.17-51.68v-113.3c0-11.17,1.96-23.23,5.9-36.16,3.93-12.93,10.29-24.93,19.09-36.01,8.79-11.07,20.28-20.33,34.46-27.78,14.17-7.45,31.4-11.17,51.68-11.17h145.58c11.17,0,23.23,1.97,36.16,5.9,12.93,3.93,24.93,10.3,36.01,19.09,11.07,8.8,20.33,20.28,27.78,34.46,7.45,14.18,11.17,31.4,11.17,51.68Z" style="fill: #662d91;"></path>
    <path d="M3160.9,252.56h-181.59c-10.97,0-19.25,2.74-24.83,8.23-5.59,5.49-8.38,13.5-8.38,24.06v222.56h-80.71v-222.56c0-13.86,1.76-26.28,5.28-37.25,3.52-10.97,8.23-20.64,14.12-29.02,5.9-8.38,12.67-15.52,20.33-21.42,7.65-5.9,15.68-10.71,24.06-14.43,8.38-3.72,16.86-6.47,25.45-8.23,8.58-1.76,16.61-2.64,24.06-2.64h182.21v80.71Z" style="fill: #662d91;"></path>
    <path d="M3327.06,507.4h-36.01c-11.59,0-23.95-1.96-37.09-5.9-13.14-3.93-25.4-10.4-36.78-19.4-11.38-9-20.8-20.69-28.25-35.08-7.45-14.38-11.17-32.02-11.17-52.92V30h80.71V394.11c0,9.93,3.1,17.85,9.31,23.75,6.21,5.9,13.97,8.85,23.28,8.85h36.01v80.71Zm-167.02-254.84h-181.59c-10.97,0-19.25,2.74-24.83,8.23-5.59,5.49-8.38,13.5-8.38,24.06v222.56h-80.71v-222.56c0-13.86,1.76-26.28,5.28-37.25,3.52-10.97,8.23-20.64,14.12-29.02,5.9-8.38,12.67-15.52,20.33-21.42,7.65-5.9,15.68-10.71,24.06-14.43,8.38-3.72,16.86-6.47,25.45-8.23,8.58-1.76,16.61-2.64,24.06-2.64h182.21v80.71Zm28.89,194.47c-7.45-14.38-12.03-32.02-12.03-52.92V30h81.56" style="fill: #662d91;"></path>
    <path d="M3610.14,507.4h-145.58c-11.59,0-23.95-1.96-37.09-5.9-13.14-3.93-25.4-10.4-36.78-19.4-11.38-9-20.8-20.69-28.25-35.08-7.45-14.38-11.17-32.02-11.17-52.92V171.86h80.71v222.25c0,10.55,2.79,18.62,8.38,24.21s13.86,8.38,24.83,8.38h144.96v80.71Zm112.99,32.28c0,13.86-1.76,26.33-5.28,37.4-3.52,11.07-8.18,20.8-13.97,29.18-5.8,8.38-12.52,15.52-20.18,21.42-7.66,5.9-15.68,10.71-24.06,14.43-8.38,3.72-16.82,6.46-25.3,8.23-8.49,1.76-16.56,2.64-24.21,2.64h-145.58v-80.71h145.58c10.76,0,18.83-2.79,24.21-8.38,5.38-5.59,8.07-13.66,8.07-24.21V171.86h80.71v367.83Z" style="fill: #662d91;"></path>
    <path d="M3824.52,466.74c0,5.59-1.09,10.82-3.26,15.68-2.17,4.86-5.07,9.11-8.69,12.73-3.62,3.62-7.87,6.47-12.73,8.54-4.86,2.07-9.99,3.1-15.37,3.1s-10.82-1.03-15.68-3.1c-4.86-2.07-9.11-4.91-12.73-8.54-3.62-3.62-6.47-7.86-8.54-12.73-2.07-4.86-3.1-10.09-3.1-15.68s1.03-10.5,3.1-15.37c2.07-4.86,4.91-9.1,8.54-12.73s7.86-6.52,12.73-8.69c4.86-2.17,10.09-3.26,15.68-3.26s10.5,1.09,15.37,3.26c4.86,2.17,9.1,5.07,12.73,8.69,3.62,3.62,6.52,7.87,8.69,12.73,2.17,4.86,3.26,9.99,3.26,15.37Z" style="fill: #662d91;"></path>
    <path d="M4178.16,507.4h-218.84c-11.17,0-23.39-1.96-36.63-5.9-13.25-3.93-25.51-10.4-36.78-19.4-11.28-9-20.7-20.69-28.25-35.08-7.56-14.38-11.33-32.02-11.33-52.92v-109.26c0-7.65,.88-15.72,2.64-24.21,1.76-8.48,4.5-16.92,8.23-25.3s8.54-16.4,14.43-24.06c5.9-7.65,13.04-14.38,21.42-20.18,8.38-5.79,18.05-10.45,29.02-13.97,10.97-3.52,23.38-5.28,37.25-5.28h218.84v80.71h-218.84c-10.55,0-18.58,2.69-24.06,8.07-5.49,5.38-8.23,13.66-8.23,24.83v108.64c0,10.55,2.79,18.62,8.38,24.21,5.59,5.59,13.76,8.38,24.52,8.38h218.22v80.71Z" style="fill: #662d91;"></path>
    <path d="M4533.05,507.4h-218.84c-11.17,0-23.39-1.96-36.63-5.9-13.25-3.93-25.51-10.4-36.78-19.4-11.28-9-20.7-20.69-28.25-35.08-7.56-14.38-11.33-32.02-11.33-52.92v-109.26c0-7.65,.88-15.72,2.64-24.21,1.76-8.48,4.5-16.92,8.23-25.3,3.72-8.38,8.54-16.4,14.43-24.06,5.9-7.65,13.04-14.38,21.42-20.18,8.38-5.79,18.05-10.45,29.02-13.97,10.97-3.52,23.38-5.28,37.25-5.28h218.84v80.71h-218.84c-10.55,0-18.58,2.69-24.06,8.07-5.49,5.38-8.23,13.66-8.23,24.83v108.64c0,10.55,2.79,18.62,8.38,24.21,5.59,5.59,13.76,8.38,24.52,8.38h218.22v80.71Z" style="fill: #662d91;"></path>
  </g>
  <g>
    <path d="M1211.2,112.99h-323.44V477.4h-80.71V72.95c0-5.59,1.03-10.86,3.1-15.83,2.07-4.97,4.91-9.31,8.54-13.04,3.62-3.72,7.92-6.62,12.88-8.69,4.97-2.07,10.35-3.1,16.14-3.1h363.49V112.99Zm-36.01,182.52h-255.15v-81.33h255.15v81.33Z" style="fill: #29abe2;"></path>
    <path d="M1580.15,364.11c0,13.87-1.76,26.34-5.28,37.4-3.52,11.07-8.18,20.8-13.97,29.18-5.8,8.38-12.52,15.52-20.18,21.42-7.66,5.9-15.68,10.71-24.06,14.43-8.38,3.72-16.87,6.47-25.45,8.23-8.59,1.76-16.71,2.64-24.37,2.64h-145.58c-11.17,0-23.39-1.96-36.63-5.9-13.25-3.93-25.51-10.4-36.78-19.4-11.28-9-20.7-20.69-28.25-35.08-7.56-14.38-11.33-32.02-11.33-52.92v-109.26c0-20.69,3.77-38.23,11.33-52.61,7.55-14.38,16.97-26.07,28.25-35.08,11.28-9,23.54-15.47,36.78-19.4,13.24-3.93,25.45-5.9,36.63-5.9h145.58c20.69,0,38.28,3.72,52.77,11.17,14.48,7.45,26.18,16.82,35.08,28.09,8.9,11.28,15.37,23.54,19.4,36.78,4.04,13.25,6.05,25.56,6.05,36.94v109.26Zm-80.71-108.64c0-11.17-2.79-19.45-8.38-24.83-5.59-5.38-13.66-8.07-24.21-8.07h-144.96c-10.76,0-18.93,2.74-24.52,8.23-5.59,5.49-8.38,13.5-8.38,24.06v109.26c0,10.55,2.79,18.62,8.38,24.21,5.59,5.59,13.76,8.38,24.52,8.38h144.96c10.97,0,19.14-2.79,24.52-8.38,5.38-5.59,8.07-13.66,8.07-24.21v-108.64Z" style="fill: #29abe2;"></path>
    <path d="M1908.03,222.56h-181.59c-10.97,0-19.25,2.74-24.83,8.23-5.59,5.49-8.38,13.5-8.38,24.06v222.56h-80.71V254.84c0-13.86,1.76-26.28,5.28-37.25,3.52-10.97,8.23-20.64,14.12-29.02,5.9-8.38,12.67-15.52,20.33-21.42,7.65-5.9,15.68-10.71,24.06-14.43s16.86-6.47,25.45-8.23c8.58-1.76,16.61-2.64,24.06-2.64h182.21v80.71Z" style="fill: #29abe2;"></path>
    <path d="M2234.88,477.4h-80.71V254.84c0-10.55-2.79-18.57-8.38-24.06-5.59-5.48-13.87-8.23-24.83-8.23h-104.92v254.84h-80.71V181.9c0-5.59,1.03-10.81,3.1-15.68,2.07-4.86,4.97-9.1,8.69-12.73,3.72-3.62,8.07-6.47,13.04-8.54,4.97-2.07,10.24-3.1,15.83-3.1h145.58c11.17,0,23.17,1.97,36.01,5.9,12.83,3.93,25.04,10.24,36.63,18.93v-24.83h109.26c7.65,0,15.72,.88,24.21,2.64,8.48,1.76,16.92,4.5,25.3,8.23,8.38,3.72,16.4,8.54,24.06,14.43,7.65,5.9,14.38,13.04,20.18,21.42,5.79,8.38,10.45,18.06,13.97,29.02,3.52,10.97,5.28,23.39,5.28,37.25v222.56h-80.71V254.84c0-10.55-2.64-18.57-7.92-24.06-5.28-5.48-13.4-8.23-24.37-8.23h-72.64c2.69,9.93,4.04,20.7,4.04,32.28v222.56Z" style="fill: #29abe2;"></path>
    <path d="M2817.3,252.98c0,11.17-1.97,23.23-5.9,36.16-3.93,12.94-10.3,24.94-19.09,36.01-8.8,11.07-20.28,20.33-34.46,27.78-14.18,7.45-31.4,11.17-51.68,11.17h-145.58v-76.67h145.58c10.97,0,19.45-3.36,25.45-10.09,6-6.72,9-15.05,9-24.99,0-10.55-3.37-18.83-10.09-24.83-6.73-6-14.85-9-24.37-9h-145.58c-10.97,0-19.45,3.37-25.45,10.09-6,6.73-9,15.05-9,24.99v112.68c0,10.76,3.36,19.14,10.09,25.14,6.72,6,15.05,9,24.99,9h144.96v76.98h-145.58c-11.17,0-23.23-1.96-36.16-5.9-12.94-3.93-24.94-10.29-36.01-19.09-11.07-8.79-20.33-20.28-27.78-34.46-7.45-14.17-11.17-31.4-11.17-51.68v-113.3c0-11.17,1.96-23.23,5.9-36.16,3.93-12.93,10.29-24.93,19.09-36.01,8.79-11.07,20.28-20.33,34.46-27.78,14.17-7.45,31.4-11.17,51.68-11.17h145.58c11.17,0,23.23,1.97,36.16,5.9,12.93,3.93,24.93,10.3,36.01,19.09,11.07,8.8,20.33,20.28,27.78,34.46,7.45,14.18,11.17,31.4,11.17,51.68Z" style="fill: #29abe2;"></path>
    <path d="M3130.9,222.56h-181.59c-10.97,0-19.25,2.74-24.83,8.23-5.59,5.49-8.38,13.5-8.38,24.06v222.56h-80.71V254.84c0-13.86,1.76-26.28,5.28-37.25,3.52-10.97,8.23-20.64,14.12-29.02,5.9-8.38,12.67-15.52,20.33-21.42,7.65-5.9,15.68-10.71,24.06-14.43,8.38-3.72,16.86-6.47,25.45-8.23,8.58-1.76,16.61-2.64,24.06-2.64h182.21v80.71Z" style="fill: #29abe2;"></path>
    <path d="M3297.06,477.4h-36.01c-11.59,0-23.95-1.96-37.09-5.9-13.14-3.93-25.4-10.4-36.78-19.4-11.38-9-20.8-20.69-28.25-35.08-7.45-14.38-11.17-32.02-11.17-52.92V0h80.71V364.11c0,9.93,3.1,17.85,9.31,23.75,6.21,5.9,13.97,8.85,23.28,8.85h36.01v80.71Zm-167.02-254.84h-181.59c-10.97,0-19.25,2.74-24.83,8.23-5.59,5.49-8.38,13.5-8.38,24.06v222.56h-80.71V254.84c0-13.86,1.76-26.28,5.28-37.25,3.52-10.97,8.23-20.64,14.12-29.02,5.9-8.38,12.67-15.52,20.33-21.42,7.65-5.9,15.68-10.71,24.06-14.43,8.38-3.72,16.86-6.47,25.45-8.23,8.58-1.76,16.61-2.64,24.06-2.64h182.21v80.71Zm28.89,194.47c-7.45-14.38-12.03-32.02-12.03-52.92V0h81.56" style="fill: #29abe2;"></path>
    <path d="M3580.14,477.4h-145.58c-11.59,0-23.95-1.96-37.09-5.9-13.14-3.93-25.4-10.4-36.78-19.4-11.38-9-20.8-20.69-28.25-35.08-7.45-14.38-11.17-32.02-11.17-52.92V141.86h80.71v222.25c0,10.55,2.79,18.62,8.38,24.21s13.86,8.38,24.83,8.38h144.96v80.71Zm112.99,32.28c0,13.86-1.76,26.33-5.28,37.4-3.52,11.07-8.18,20.8-13.97,29.18-5.8,8.38-12.52,15.52-20.18,21.42-7.66,5.9-15.68,10.71-24.06,14.43-8.38,3.72-16.82,6.46-25.3,8.23-8.49,1.76-16.56,2.64-24.21,2.64h-145.58v-80.71h145.58c10.76,0,18.83-2.79,24.21-8.38,5.38-5.59,8.07-13.66,8.07-24.21V141.86h80.71V509.69Z" style="fill: #29abe2;"></path>
    <path d="M3794.52,436.74c0,5.59-1.09,10.82-3.26,15.68-2.17,4.86-5.07,9.11-8.69,12.73-3.62,3.62-7.87,6.47-12.73,8.54-4.86,2.07-9.99,3.1-15.37,3.1s-10.82-1.03-15.68-3.1c-4.86-2.07-9.11-4.91-12.73-8.54-3.62-3.62-6.47-7.86-8.54-12.73-2.07-4.86-3.1-10.09-3.1-15.68s1.03-10.5,3.1-15.37c2.07-4.86,4.91-9.1,8.54-12.73s7.86-6.52,12.73-8.69c4.86-2.17,10.09-3.26,15.68-3.26s10.5,1.09,15.37,3.26c4.86,2.17,9.1,5.07,12.73,8.69,3.62,3.62,6.52,7.87,8.69,12.73,2.17,4.86,3.26,9.99,3.26,15.37Z" style="fill: #29abe2;"></path>
    <path d="M4148.16,477.4h-218.84c-11.17,0-23.39-1.96-36.63-5.9-13.25-3.93-25.51-10.4-36.78-19.4-11.28-9-20.7-20.69-28.25-35.08-7.56-14.38-11.33-32.02-11.33-52.92v-109.26c0-7.65,.88-15.72,2.64-24.21,1.76-8.48,4.5-16.92,8.23-25.3s8.54-16.4,14.43-24.06c5.9-7.65,13.04-14.38,21.42-20.18,8.38-5.79,18.05-10.45,29.02-13.97,10.97-3.52,23.38-5.28,37.25-5.28h218.84v80.71h-218.84c-10.55,0-18.58,2.69-24.06,8.07-5.49,5.38-8.23,13.66-8.23,24.83v108.64c0,10.55,2.79,18.62,8.38,24.21,5.59,5.59,13.76,8.38,24.52,8.38h218.22v80.71Z" style="fill: #29abe2;"></path>
    <path d="M4503.05,477.4h-218.84c-11.17,0-23.39-1.96-36.63-5.9-13.25-3.93-25.51-10.4-36.78-19.4-11.28-9-20.7-20.69-28.25-35.08-7.56-14.38-11.33-32.02-11.33-52.92v-109.26c0-7.65,.88-15.72,2.64-24.21,1.76-8.48,4.5-16.92,8.23-25.3,3.72-8.38,8.54-16.4,14.43-24.06,5.9-7.65,13.04-14.38,21.42-20.18,8.38-5.79,18.05-10.45,29.02-13.97,10.97-3.52,23.38-5.28,37.25-5.28h218.84v80.71h-218.84c-10.55,0-18.58,2.69-24.06,8.07-5.49,5.38-8.23,13.66-8.23,24.83v108.64c0,10.55,2.79,18.62,8.38,24.21,5.59,5.59,13.76,8.38,24.52,8.38h218.22v80.71Z" style="fill: #29abe2;"></path>
  </g>
  <g>
    <path d="M1221.2,122.99h-323.44V487.4h-80.71V82.95c0-5.59,1.03-10.86,3.1-15.83,2.07-4.97,4.91-9.31,8.54-13.04,3.62-3.72,7.92-6.62,12.88-8.69,4.97-2.07,10.35-3.1,16.14-3.1h363.49V122.99Zm-36.01,182.52h-255.15v-81.33h255.15v81.33Z" style="fill: #fff; stroke: #fff; stroke-miterlimit: 10; stroke-width: 4px;"></path>
    <path d="M1590.15,374.11c0,13.87-1.76,26.34-5.28,37.4-3.52,11.07-8.18,20.8-13.97,29.18-5.8,8.38-12.52,15.52-20.18,21.42-7.66,5.9-15.68,10.71-24.06,14.43-8.38,3.72-16.87,6.47-25.45,8.23-8.59,1.76-16.71,2.64-24.37,2.64h-145.58c-11.17,0-23.39-1.96-36.63-5.9-13.25-3.93-25.51-10.4-36.78-19.4-11.28-9-20.7-20.69-28.25-35.08-7.56-14.38-11.33-32.02-11.33-52.92v-109.26c0-20.69,3.77-38.23,11.33-52.61,7.55-14.38,16.97-26.07,28.25-35.08,11.28-9,23.54-15.47,36.78-19.4,13.24-3.93,25.45-5.9,36.63-5.9h145.58c20.69,0,38.28,3.72,52.77,11.17,14.48,7.45,26.18,16.82,35.08,28.09,8.9,11.28,15.37,23.54,19.4,36.78,4.04,13.25,6.05,25.56,6.05,36.94v109.26Zm-80.71-108.64c0-11.17-2.79-19.45-8.38-24.83-5.59-5.38-13.66-8.07-24.21-8.07h-144.96c-10.76,0-18.93,2.74-24.52,8.23-5.59,5.49-8.38,13.5-8.38,24.06v109.26c0,10.55,2.79,18.62,8.38,24.21,5.59,5.59,13.76,8.38,24.52,8.38h144.96c10.97,0,19.14-2.79,24.52-8.38,5.38-5.59,8.07-13.66,8.07-24.21v-108.64Z" style="fill: #fff; stroke: #fff; stroke-miterlimit: 10; stroke-width: 4px;"></path>
    <path d="M1918.03,232.56h-181.59c-10.97,0-19.25,2.74-24.83,8.23-5.59,5.49-8.38,13.5-8.38,24.06v222.56h-80.71v-222.56c0-13.86,1.76-26.28,5.28-37.25,3.52-10.97,8.23-20.64,14.12-29.02,5.9-8.38,12.67-15.52,20.33-21.42,7.65-5.9,15.68-10.71,24.06-14.43s16.86-6.47,25.45-8.23c8.58-1.76,16.61-2.64,24.06-2.64h182.21v80.71Z" style="fill: #fff; stroke: #fff; stroke-miterlimit: 10; stroke-width: 4px;"></path>
    <path d="M2244.88,487.4h-80.71v-222.56c0-10.55-2.79-18.57-8.38-24.06-5.59-5.48-13.87-8.23-24.83-8.23h-104.92v254.84h-80.71V191.9c0-5.59,1.03-10.81,3.1-15.68,2.07-4.86,4.97-9.1,8.69-12.73,3.72-3.62,8.07-6.47,13.04-8.54,4.97-2.07,10.24-3.1,15.83-3.1h145.58c11.17,0,23.17,1.97,36.01,5.9,12.83,3.93,25.04,10.24,36.63,18.93v-24.83h109.26c7.65,0,15.72,.88,24.21,2.64,8.48,1.76,16.92,4.5,25.3,8.23,8.38,3.72,16.4,8.54,24.06,14.43,7.65,5.9,14.38,13.04,20.18,21.42,5.79,8.38,10.45,18.06,13.97,29.02,3.52,10.97,5.28,23.39,5.28,37.25v222.56h-80.71v-222.56c0-10.55-2.64-18.57-7.92-24.06-5.28-5.48-13.4-8.23-24.37-8.23h-72.64c2.69,9.93,4.04,20.7,4.04,32.28v222.56Z" style="fill: #fff; stroke: #fff; stroke-miterlimit: 10; stroke-width: 4px;"></path>
    <path d="M2827.3,262.98c0,11.17-1.97,23.23-5.9,36.16-3.93,12.94-10.3,24.94-19.09,36.01-8.8,11.07-20.28,20.33-34.46,27.78-14.18,7.45-31.4,11.17-51.68,11.17h-145.58v-76.67h145.58c10.97,0,19.45-3.36,25.45-10.09,6-6.72,9-15.05,9-24.99,0-10.55-3.37-18.83-10.09-24.83-6.73-6-14.85-9-24.37-9h-145.58c-10.97,0-19.45,3.37-25.45,10.09-6,6.73-9,15.05-9,24.99v112.68c0,10.76,3.36,19.14,10.09,25.14,6.72,6,15.05,9,24.99,9h144.96v76.98h-145.58c-11.17,0-23.23-1.96-36.16-5.9-12.94-3.93-24.94-10.29-36.01-19.09-11.07-8.79-20.33-20.28-27.78-34.46-7.45-14.17-11.17-31.4-11.17-51.68v-113.3c0-11.17,1.96-23.23,5.9-36.16,3.93-12.93,10.29-24.93,19.09-36.01,8.79-11.07,20.28-20.33,34.46-27.78,14.17-7.45,31.4-11.17,51.68-11.17h145.58c11.17,0,23.23,1.97,36.16,5.9,12.93,3.93,24.93,10.3,36.01,19.09,11.07,8.8,20.33,20.28,27.78,34.46,7.45,14.18,11.17,31.4,11.17,51.68Z" style="fill: #fff; stroke: #fff; stroke-miterlimit: 10; stroke-width: 4px;"></path>
    <path d="M3140.9,232.56h-181.59c-10.97,0-19.25,2.74-24.83,8.23-5.59,5.49-8.38,13.5-8.38,24.06v222.56h-80.71v-222.56c0-13.86,1.76-26.28,5.28-37.25,3.52-10.97,8.23-20.64,14.12-29.02,5.9-8.38,12.67-15.52,20.33-21.42,7.65-5.9,15.68-10.71,24.06-14.43,8.38-3.72,16.86-6.47,25.45-8.23,8.58-1.76,16.61-2.64,24.06-2.64h182.21v80.71Z" style="fill: #fff; stroke: #fff; stroke-miterlimit: 10; stroke-width: 4px;"></path>
    <path d="M3307.06,487.4h-36.01c-11.59,0-23.95-1.96-37.09-5.9-13.14-3.93-25.4-10.4-36.78-19.4-11.38-9-20.8-20.69-28.25-35.08-7.45-14.38-11.17-32.02-11.17-52.92V10h80.71V374.11c0,9.93,3.1,17.85,9.31,23.75,6.21,5.9,13.97,8.85,23.28,8.85h36.01v80.71Zm-167.02-254.84h-181.59c-10.97,0-19.25,2.74-24.83,8.23-5.59,5.49-8.38,13.5-8.38,24.06v222.56h-80.71v-222.56c0-13.86,1.76-26.28,5.28-37.25,3.52-10.97,8.23-20.64,14.12-29.02,5.9-8.38,12.67-15.52,20.33-21.42,7.65-5.9,15.68-10.71,24.06-14.43,8.38-3.72,16.86-6.47,25.45-8.23,8.58-1.76,16.61-2.64,24.06-2.64h182.21v80.71Zm28.89,194.47c-7.45-14.38-12.03-32.02-12.03-52.92V10h81.56" style="fill: #fff; stroke: #fff; stroke-miterlimit: 10; stroke-width: 4px;"></path>
    <path d="M3590.14,487.4h-145.58c-11.59,0-23.95-1.96-37.09-5.9-13.14-3.93-25.4-10.4-36.78-19.4-11.38-9-20.8-20.69-28.25-35.08-7.45-14.38-11.17-32.02-11.17-52.92V151.86h80.71v222.25c0,10.55,2.79,18.62,8.38,24.21s13.86,8.38,24.83,8.38h144.96v80.71Zm112.99,32.28c0,13.86-1.76,26.33-5.28,37.4-3.52,11.07-8.18,20.8-13.97,29.18-5.8,8.38-12.52,15.52-20.18,21.42-7.66,5.9-15.68,10.71-24.06,14.43-8.38,3.72-16.82,6.46-25.3,8.23-8.49,1.76-16.56,2.64-24.21,2.64h-145.58v-80.71h145.58c10.76,0,18.83-2.79,24.21-8.38,5.38-5.59,8.07-13.66,8.07-24.21V151.86h80.71v367.83Z" style="fill: #fff; stroke: #fff; stroke-miterlimit: 10; stroke-width: 4px;"></path>
    <path d="M3804.52,446.74c0,5.59-1.09,10.82-3.26,15.68-2.17,4.86-5.07,9.11-8.69,12.73-3.62,3.62-7.87,6.47-12.73,8.54-4.86,2.07-9.99,3.1-15.37,3.1s-10.82-1.03-15.68-3.1c-4.86-2.07-9.11-4.91-12.73-8.54-3.62-3.62-6.47-7.86-8.54-12.73-2.07-4.86-3.1-10.09-3.1-15.68s1.03-10.5,3.1-15.37c2.07-4.86,4.91-9.1,8.54-12.73s7.86-6.52,12.73-8.69c4.86-2.17,10.09-3.26,15.68-3.26s10.5,1.09,15.37,3.26c4.86,2.17,9.1,5.07,12.73,8.69,3.62,3.62,6.52,7.87,8.69,12.73,2.17,4.86,3.26,9.99,3.26,15.37Z" style="fill: #fff; stroke: #fff; stroke-miterlimit: 10; stroke-width: 4px;"></path>
    <path d="M4158.16,487.4h-218.84c-11.17,0-23.39-1.96-36.63-5.9-13.25-3.93-25.51-10.4-36.78-19.4-11.28-9-20.7-20.69-28.25-35.08-7.56-14.38-11.33-32.02-11.33-52.92v-109.26c0-7.65,.88-15.72,2.64-24.21,1.76-8.48,4.5-16.92,8.23-25.3s8.54-16.4,14.43-24.06c5.9-7.65,13.04-14.38,21.42-20.18,8.38-5.79,18.05-10.45,29.02-13.97,10.97-3.52,23.38-5.28,37.25-5.28h218.84v80.71h-218.84c-10.55,0-18.58,2.69-24.06,8.07-5.49,5.38-8.23,13.66-8.23,24.83v108.64c0,10.55,2.79,18.62,8.38,24.21,5.59,5.59,13.76,8.38,24.52,8.38h218.22v80.71Z" style="fill: #fff; stroke: #fff; stroke-miterlimit: 10; stroke-width: 4px;"></path>
    <path d="M4513.05,487.4h-218.84c-11.17,0-23.39-1.96-36.63-5.9-13.25-3.93-25.51-10.4-36.78-19.4-11.28-9-20.7-20.69-28.25-35.08-7.56-14.38-11.33-32.02-11.33-52.92v-109.26c0-7.65,.88-15.72,2.64-24.21,1.76-8.48,4.5-16.92,8.23-25.3,3.72-8.38,8.54-16.4,14.43-24.06,5.9-7.65,13.04-14.38,21.42-20.18,8.38-5.79,18.05-10.45,29.02-13.97,10.97-3.52,23.38-5.28,37.25-5.28h218.84v80.71h-218.84c-10.55,0-18.58,2.69-24.06,8.07-5.49,5.38-8.23,13.66-8.23,24.83v108.64c0,10.55,2.79,18.62,8.38,24.21,5.59,5.59,13.76,8.38,24.52,8.38h218.22v80.71Z" style="fill: #fff; stroke: #fff; stroke-miterlimit: 10; stroke-width: 4px;"></path>
  </g>
  <g>
    <polygon points="229.9 170.56 174.4 74.42 81.33 235.61 30 324.52 141.01 324.52 166.87 279.74 229.9 170.56" style="fill: #662d91;"></polygon>
    <polygon points="446.79 453.14 318.52 453.14 192.64 453.14 132.58 557.17 318.52 557.17 506.86 557.17 446.79 453.14" style="fill: #662d91;"></polygon>
    <polygon points="557.72 235.99 463.92 73.53 408.41 169.67 472.18 280.12 498.03 324.9 609.05 324.9 557.72 235.99" style="fill: #662d91;"></polygon>
    <polygon points="320.05 368.88 245.6 368.88 282.82 304.4 320.05 239.92 357.27 304.4 394.5 368.88 320.05 368.88" style="fill: #662d91;"></polygon>
  </g>
  <g>
    <polygon points="199.9 140.56 144.4 44.42 51.33 205.61 0 294.52 111.01 294.52 136.87 249.74 199.9 140.56" style="fill: #29abe2;"></polygon>
    <polygon points="416.79 423.14 288.52 423.14 162.64 423.14 102.58 527.17 288.52 527.17 476.86 527.17 416.79 423.14" style="fill: #29abe2;"></polygon>
    <polygon points="527.72 205.99 433.92 43.53 378.41 139.67 442.18 250.12 468.03 294.9 579.05 294.9 527.72 205.99" style="fill: #29abe2;"></polygon>
    <polygon points="290.05 338.88 215.6 338.88 252.82 274.4 290.05 209.92 327.27 274.4 364.5 338.88 290.05 338.88" style="fill: #29abe2;"></polygon>
  </g>
  <g>
    <polygon points="209.9 149.56 154.4 53.42 61.33 214.61 10 303.52 121.01 303.52 146.87 258.74 209.9 149.56" style="fill: #fff; stroke: #fff; stroke-miterlimit: 10; stroke-width: 5px;"></polygon>
    <polygon points="426.79 432.14 298.52 432.14 172.64 432.14 112.58 536.17 298.52 536.17 486.86 536.17 426.79 432.14" style="fill: #fff; stroke: #fff; stroke-miterlimit: 10; stroke-width: 5px;"></polygon>
    <polygon points="537.72 214.99 443.92 52.53 388.41 148.67 452.18 259.12 478.03 303.9 589.05 303.9 537.72 214.99" style="fill: #fff; stroke: #fff; stroke-miterlimit: 10; stroke-width: 5px;"></polygon>
    <polygon points="300.05 347.88 225.6 347.88 262.82 283.4 300.05 218.92 337.27 283.4 374.5 347.88 300.05 347.88" style="fill: #fff; stroke: #fff; stroke-miterlimit: 10; stroke-width: 5px;"></polygon>
  </g>
</svg>
